<mxfile host="app.diagrams.net" modified="2020-11-23T08:26:33.802Z" agent="5.0 (Windows NT 10.0; Win64; x64) AppleWebKit/537.36 (KHTML, like Gecko) Chrome/86.0.4240.198 Safari/537.36" etag="0LneVFNAbtmWPFIuFSD9" version="13.9.9" type="github">
  <diagram id="XsG1NGjMLy8Txl2xfddT" name="Page-1">
    <mxGraphModel dx="1477" dy="688" grid="1" gridSize="10" guides="1" tooltips="1" connect="1" arrows="1" fold="1" page="1" pageScale="1" pageWidth="1100" pageHeight="850" math="0" shadow="0">
      <root>
        <mxCell id="0" />
        <mxCell id="1" parent="0" />
        <mxCell id="rkTGoCr_PCal79WlTi9f-8" style="edgeStyle=orthogonalEdgeStyle;rounded=0;orthogonalLoop=1;jettySize=auto;html=1;" edge="1" parent="1" source="rkTGoCr_PCal79WlTi9f-4" target="rkTGoCr_PCal79WlTi9f-5">
          <mxGeometry relative="1" as="geometry" />
        </mxCell>
        <mxCell id="rkTGoCr_PCal79WlTi9f-4" value="&lt;font style=&quot;font-size: 18px&quot;&gt;IntroActivity&lt;/font&gt;" style="rounded=0;whiteSpace=wrap;html=1;" vertex="1" parent="1">
          <mxGeometry x="50" y="150" width="120" height="60" as="geometry" />
        </mxCell>
        <mxCell id="rkTGoCr_PCal79WlTi9f-24" value="" style="edgeStyle=orthogonalEdgeStyle;rounded=0;orthogonalLoop=1;jettySize=auto;html=1;" edge="1" parent="1" source="rkTGoCr_PCal79WlTi9f-5" target="rkTGoCr_PCal79WlTi9f-16">
          <mxGeometry relative="1" as="geometry" />
        </mxCell>
        <mxCell id="rkTGoCr_PCal79WlTi9f-5" value="&lt;font style=&quot;font-size: 18px&quot;&gt;AuthFirstActivity&lt;/font&gt;" style="rounded=0;whiteSpace=wrap;html=1;" vertex="1" parent="1">
          <mxGeometry x="250" y="150" width="140" height="60" as="geometry" />
        </mxCell>
        <mxCell id="rkTGoCr_PCal79WlTi9f-6" value="&lt;font style=&quot;font-size: 18px&quot;&gt;MainActivity&lt;/font&gt;" style="rounded=0;whiteSpace=wrap;html=1;" vertex="1" parent="1">
          <mxGeometry x="250" y="250" width="120" height="60" as="geometry" />
        </mxCell>
        <mxCell id="rkTGoCr_PCal79WlTi9f-11" value="&lt;h1&gt;로그인 플로우&lt;/h1&gt;" style="text;html=1;strokeColor=none;fillColor=none;spacing=5;spacingTop=-20;whiteSpace=wrap;overflow=hidden;rounded=0;" vertex="1" parent="1">
          <mxGeometry x="40" y="30" width="160" height="40" as="geometry" />
        </mxCell>
        <mxCell id="rkTGoCr_PCal79WlTi9f-12" value="&lt;h1&gt;결제 플로우&lt;/h1&gt;" style="text;html=1;strokeColor=none;fillColor=none;spacing=5;spacingTop=-20;whiteSpace=wrap;overflow=hidden;rounded=0;" vertex="1" parent="1">
          <mxGeometry x="40" y="470" width="160" height="40" as="geometry" />
        </mxCell>
        <mxCell id="rkTGoCr_PCal79WlTi9f-13" value="&lt;span style=&quot;font-size: 18px&quot;&gt;first login&lt;/span&gt;" style="text;html=1;strokeColor=none;fillColor=none;align=center;verticalAlign=middle;whiteSpace=wrap;rounded=0;" vertex="1" parent="1">
          <mxGeometry x="140" y="100" width="140" height="40" as="geometry" />
        </mxCell>
        <mxCell id="rkTGoCr_PCal79WlTi9f-14" value="" style="endArrow=classic;html=1;entryX=0;entryY=0.5;entryDx=0;entryDy=0;" edge="1" parent="1" target="rkTGoCr_PCal79WlTi9f-6">
          <mxGeometry width="50" height="50" relative="1" as="geometry">
            <mxPoint x="190" y="180" as="sourcePoint" />
            <mxPoint x="190" y="280" as="targetPoint" />
            <Array as="points">
              <mxPoint x="190" y="280" />
            </Array>
          </mxGeometry>
        </mxCell>
        <mxCell id="rkTGoCr_PCal79WlTi9f-15" value="&lt;span style=&quot;font-size: 18px&quot;&gt;already login&lt;br&gt;→ 앱 메인화면 진입&lt;br&gt;&lt;/span&gt;" style="text;html=1;strokeColor=none;fillColor=none;align=center;verticalAlign=middle;whiteSpace=wrap;rounded=0;" vertex="1" parent="1">
          <mxGeometry x="120" y="330" width="180" height="40" as="geometry" />
        </mxCell>
        <mxCell id="rkTGoCr_PCal79WlTi9f-25" value="" style="edgeStyle=orthogonalEdgeStyle;rounded=0;orthogonalLoop=1;jettySize=auto;html=1;" edge="1" parent="1" source="rkTGoCr_PCal79WlTi9f-16" target="rkTGoCr_PCal79WlTi9f-20">
          <mxGeometry relative="1" as="geometry" />
        </mxCell>
        <mxCell id="rkTGoCr_PCal79WlTi9f-16" value="&lt;font style=&quot;font-size: 18px&quot;&gt;AuthSecondActivity&lt;/font&gt;" style="rounded=0;whiteSpace=wrap;html=1;" vertex="1" parent="1">
          <mxGeometry x="440" y="150" width="170" height="60" as="geometry" />
        </mxCell>
        <mxCell id="rkTGoCr_PCal79WlTi9f-17" value="&lt;font style=&quot;font-size: 14px&quot;&gt;가맹점 아이디 입력&lt;/font&gt;" style="text;html=1;strokeColor=none;fillColor=none;align=center;verticalAlign=middle;whiteSpace=wrap;rounded=0;" vertex="1" parent="1">
          <mxGeometry x="340" y="100" width="140" height="40" as="geometry" />
        </mxCell>
        <mxCell id="rkTGoCr_PCal79WlTi9f-18" value="&lt;font style=&quot;font-size: 14px&quot;&gt;터미널 아이디 / &lt;br&gt;일련번호(시리얼 번호) 입력&lt;/font&gt;" style="text;html=1;strokeColor=none;fillColor=none;align=center;verticalAlign=middle;whiteSpace=wrap;rounded=0;" vertex="1" parent="1">
          <mxGeometry x="550" y="100" width="190" height="40" as="geometry" />
        </mxCell>
        <mxCell id="rkTGoCr_PCal79WlTi9f-26" value="" style="edgeStyle=orthogonalEdgeStyle;rounded=0;orthogonalLoop=1;jettySize=auto;html=1;" edge="1" parent="1" source="rkTGoCr_PCal79WlTi9f-20" target="rkTGoCr_PCal79WlTi9f-22">
          <mxGeometry relative="1" as="geometry" />
        </mxCell>
        <mxCell id="rkTGoCr_PCal79WlTi9f-20" value="&lt;font style=&quot;font-size: 18px&quot;&gt;LoginCompleteActivity&lt;/font&gt;" style="rounded=0;whiteSpace=wrap;html=1;" vertex="1" parent="1">
          <mxGeometry x="690" y="150" width="190" height="60" as="geometry" />
        </mxCell>
        <mxCell id="rkTGoCr_PCal79WlTi9f-21" value="&lt;font style=&quot;font-size: 14px&quot;&gt;인증완료&lt;/font&gt;" style="text;html=1;strokeColor=none;fillColor=none;align=center;verticalAlign=middle;whiteSpace=wrap;rounded=0;" vertex="1" parent="1">
          <mxGeometry x="830" y="100" width="140" height="40" as="geometry" />
        </mxCell>
        <mxCell id="rkTGoCr_PCal79WlTi9f-22" value="&lt;font style=&quot;font-size: 18px&quot;&gt;MainActivity&lt;/font&gt;" style="rounded=0;whiteSpace=wrap;html=1;" vertex="1" parent="1">
          <mxGeometry x="940" y="150" width="120" height="60" as="geometry" />
        </mxCell>
        <mxCell id="rkTGoCr_PCal79WlTi9f-23" value="&lt;font style=&quot;font-size: 18px&quot;&gt;MainActivity&lt;/font&gt;" style="rounded=0;whiteSpace=wrap;html=1;" vertex="1" parent="1">
          <mxGeometry x="50" y="560" width="120" height="60" as="geometry" />
        </mxCell>
        <mxCell id="rkTGoCr_PCal79WlTi9f-27" value="&lt;font style=&quot;font-size: 18px&quot;&gt;신용카드 결제&lt;/font&gt;" style="rounded=0;whiteSpace=wrap;html=1;" vertex="1" parent="1">
          <mxGeometry x="220" y="560" width="120" height="60" as="geometry" />
        </mxCell>
        <mxCell id="rkTGoCr_PCal79WlTi9f-28" value="&lt;font style=&quot;font-size: 18px&quot;&gt;수기 결제&lt;/font&gt;" style="rounded=0;whiteSpace=wrap;html=1;" vertex="1" parent="1">
          <mxGeometry x="220" y="660" width="120" height="60" as="geometry" />
        </mxCell>
        <mxCell id="rkTGoCr_PCal79WlTi9f-30" value="&lt;span style=&quot;font-size: 18px&quot;&gt;key 토큰 값 유무&lt;/span&gt;" style="text;html=1;strokeColor=none;fillColor=none;align=center;verticalAlign=middle;whiteSpace=wrap;rounded=0;" vertex="1" parent="1">
          <mxGeometry x="40" y="220" width="140" height="40" as="geometry" />
        </mxCell>
      </root>
    </mxGraphModel>
  </diagram>
</mxfile>
